PathFileType	4	(X/Y/Z)	c:/Users/goper/Files/vsCode/490R/osim_files/C03/C03_ROM.trc
DataRate	CameraRate	NumFrames	NumMarkers	Units                	OrigDataRate	OrigDataStartFrame	OrigNumFrames
250.00	250.00	4	36	mm	250.0	2284	3653
                Frame#	Time	LPSIS			LASIS			LTH1			LTH2			LTH3			LTH4			LLFE			LMFE			LSH1			LSH2			LSH3			LSH4			LLMAL			LMMAL			LCAL			LMTP5			LTOE			LMTP1			RPSIS			RASIS			RTH1			RTH2			RTH3			RTH4			RLFE			RMFE			RSH1			RSH2			RSH3			RSH4			RLMAL			RMMAL			RCAL			RMTP1			RTOE			RMTP5		
		X1	Y1	Z1	X2	Y2	Z2	X3	Y3	Z3	X4	Y4	Z4	X5	Y5	Z5	X6	Y6	Z6	X7	Y7	Z7	X8	Y8	Z8	X9	Y9	Z9	X10	Y10	Z10	X11	Y11	Z11	X12	Y12	Z12	X13	Y13	Z13	X14	Y14	Z14	X15	Y15	Z15	X16	Y16	Z16	X17	Y17	Z17	X18	Y18	Z18	X19	Y19	Z19	X20	Y20	Z20	X21	Y21	Z21	X22	Y22	Z22	X23	Y23	Z23	X24	Y24	Z24	X25	Y25	Z25	X26	Y26	Z26	X27	Y27	Z27	X28	Y28	Z28	X29	Y29	Z29	X30	Y30	Z30	X31	Y31	Z31	X32	Y32	Z32	X33	Y33	Z33	X34	Y34	Z34	X35	Y35	Z35	X36	Y36	Z36

2284	9.13200	-373.71490	1050.08496	382.73920	-205.47308	971.01459	351.32047	-347.97168	640.26227	267.31171	-343.38626	578.13208	265.77585	-272.08594	639.86969	259.02295	-276.91336	578.22107	259.07379	-321.44519	493.81177	260.68323	-309.11206	471.08542	369.72861	-397.21603	320.13931	236.88777	-394.15887	273.86200	232.87857	-337.96912	322.73398	222.46901	-343.18405	275.08899	219.68311	-356.51740	106.07594	220.67802	-326.30484	107.38496	296.38489	-419.79688	67.05459	262.37500	-231.59508	49.83168	167.34952	-191.23810	63.83740	215.13776	-207.15184	53.16131	258.25320	-372.65302	1045.87109	495.52893	-210.37914	984.51984	555.08337	-378.93805	622.64783	607.97906	-379.57373	560.67523	604.63849	-321.99490	625.64618	638.81390	-313.50766	564.39288	642.91638	-319.27261	492.40869	633.93146	-313.01392	489.87985	521.97717	-417.31479	314.49695	655.58667	-414.98544	267.49884	662.48621	-359.18484	311.72675	679.18982	-366.83630	268.88461	682.36713	-373.92322	106.64178	684.79626	-344.18280	103.70973	608.30975	-435.66733	66.26754	635.02655	-227.41467	40.86549	631.27283	-207.17874	64.23541	681.56567	-270.83261	36.40051	734.90680
2285	9.13600	-373.37222	1049.75342	382.69299	-204.98489	971.18451	351.36215	-347.95258	640.32721	267.31702	-343.51370	578.21320	265.76480	-272.08978	639.75586	258.99701	-276.98648	578.14459	259.03238	-321.77823	493.76733	260.72797	-309.46686	471.06769	369.75385	-397.42502	320.09622	236.89857	-394.30612	273.81564	232.88695	-338.16559	322.74872	222.48344	-343.32422	275.10867	219.69284	-356.56583	106.00746	220.75691	-326.31848	107.38860	296.37476	-419.76645	67.03757	262.38229	-231.85722	49.55069	167.41678	-191.14581	63.83201	215.18149	-207.13399	53.16183	258.25165	-372.33041	1045.48071	495.48306	-209.76088	984.55042	555.14075	-378.96054	622.66132	607.76984	-379.71783	560.69336	604.46509	-322.15536	625.57025	638.66699	-313.72678	564.33801	642.78912	-319.57062	492.38412	633.76282	-313.30679	489.83835	521.86414	-417.57037	314.43738	655.40393	-415.20782	267.40997	662.31049	-359.43512	311.72296	679.03363	-367.00180	268.88135	682.23566	-373.94040	106.65279	684.71027	-344.19525	103.67744	608.24219	-435.63266	66.24559	634.97675	-227.40425	40.84885	631.27594	-207.14847	64.22037	681.56647	-270.83960	36.39684	734.89832
2286	9.14000	-372.97229	1049.38599	382.63864	-204.42586	971.21661	351.35172	-347.95642	640.36029	267.31528	-343.63068	578.23358	265.78073	-272.05597	639.68011	258.96301	-277.09753	578.07184	258.95883	-321.99176	493.76794	260.72906	-309.77844	471.06772	369.76794	-397.60947	320.03522	236.89806	-394.44913	273.75186	232.89128	-338.33575	322.76199	222.50529	-343.48257	275.09866	219.72142	-356.61154	105.98207	220.76883	-326.32590	107.38244	296.35699	-419.76428	67.00809	262.36609	-231.85455	49.53057	167.39403	-191.18440	63.83513	215.13095	-207.10245	53.18122	258.21442	-371.99939	1045.11169	495.46600	-209.26965	984.54639	555.15607	-379.00168	622.68988	607.60583	-379.92731	560.75513	604.27893	-322.22742	625.50580	638.51965	-313.92694	564.27960	642.63513	-319.86798	492.37576	633.59302	-313.50012	489.81879	521.73004	-417.73648	314.36578	655.25061	-415.36908	267.32349	662.12158	-359.62680	311.72513	678.89362	-367.16132	268.87155	682.08594	-373.90781	106.71684	684.58539	-344.16226	103.65500	608.17340	-435.60995	66.21702	634.92560	-227.41447	40.88099	631.55347	-207.12842	64.20914	681.53851	-270.82809	36.38752	734.88031
2287	9.14400	-372.69275	1049.03345	382.61240	-203.77295	971.12292	351.29919	-347.95203	640.40417	267.31439	-343.75015	578.31183	265.80157	-272.06622	639.59485	258.93945	-277.14377	578.02875	258.91348	-322.23602	493.75223	260.78098	-310.08176	471.04462	369.83548	-397.77142	320.02206	236.89258	-394.61032	273.71487	232.89391	-338.50803	322.75507	222.51494	-343.63126	275.08566	219.74379	-356.63290	105.97704	220.77180	-326.35294	107.37292	296.36212	-419.79480	67.02421	262.34201	-231.86195	49.53555	167.39090	-191.18051	63.83619	215.13208	-207.10521	53.18553	258.22629	-371.63412	1044.71704	495.44971	-208.85028	984.52295	555.22845	-379.07693	622.79498	607.42096	-380.15546	560.85449	604.05066	-322.36868	625.44080	638.38495	-314.17950	564.22046	642.52148	-320.21277	492.33655	633.43030	-313.67728	489.77307	521.66394	-417.95627	314.32278	655.12463	-415.57602	267.27078	661.98438	-359.83575	311.71085	678.80890	-367.30865	268.86502	681.99854	-373.95511	106.65801	684.54077	-344.15588	103.63361	608.13635	-435.61472	66.22648	634.90997	-227.36012	40.86077	631.27448	-207.12863	64.18097	681.55182	-270.86398	36.39138	734.88226
